<svg width="128" height="100" viewBox="0 0 128 100" fill="none" xmlns="http://www.w3.org/2000/svg">
  <circle cx="93" cy="25" r="16" fill="#DDF1EB"/>
  <circle cx="24" cy="79" r="13" fill="#E9EFED"/>
  <rect x="37" y="17" width="66" height="66" rx="21" transform="rotate(9 37 17)" fill="#C7DED7"/>
  <rect x="29" y="12" width="66" height="66" rx="21" fill="#1D2D50"/>
  <path d="M57 29V50C57 58 53 62 47 62C42 62 39 59 37 55" stroke="#F7F5EF" stroke-width="5.5" stroke-linecap="round"/>
  <path d="M88 35C84 31 80 29 75 29C66 29 60 36 60 45C60 54 66 61 75 61C80 61 84 59 88 55" stroke="#8BCBB7" stroke-width="5.5" stroke-linecap="round"/>
</svg>
